<svg width="64" height="64" viewBox="0 0 64 64" fill="none" xmlns="http://www.w3.org/2000/svg"><path d="M5.287 16.577 32 1.155l26.713 15.422v30.846L32 62.845 5.287 47.423V16.577Z" fill="url(#a)" stroke="#FFCD1E" stroke-width="2"/><path d="m33.564 24-.3 11.063H30.44L30.13 24h3.433Zm-1.712 16c-.51 0-.947-.18-1.312-.54a1.763 1.763 0 0 1-.54-1.312 1.73 1.73 0 0 1 .54-1.296c.365-.36.802-.54 1.312-.54.488 0 .918.18 1.288.54.37.36.558.793.563 1.297-.005.339-.095.65-.27.933-.17.278-.393.501-.671.671a1.753 1.753 0 0 1-.91.247Z" fill="#fff"/><defs><radialGradient id="a" cx="0" cy="0" r="1" gradientUnits="userSpaceOnUse" gradientTransform="matrix(0 39 -39 0 32 35.5)"><stop stop-color="#FFD43E"/><stop offset="1" stop-color="#F19915"/></radialGradient></defs></svg>